<svg xmlns="http://www.w3.org/2000/svg" width="159" height="156" viewBox="0 0 159 156">
  <g id="Group_6" data-name="Group 6" transform="translate(77 -794)">
    <path id="Union_6" data-name="Union 6" d="M0,115v-2.787a50,50,0,0,1,50-50H66a50,50,0,0,1,50,50V115ZM32.523,26.393C32.523,11.817,43.849,0,57.82,0s25.3,11.817,25.3,26.393S71.79,52.787,57.82,52.787,32.523,40.97,32.523,26.393Z" transform="translate(-77 794)" fill="#812a61"/>
  </g>
  <g id="Group_7" data-name="Group 7" transform="translate(1686 79.933)">
    <path id="Union_5" data-name="Union 5" d="M0,136V123.574a50,50,0,0,1,50-50H84a50,50,0,0,1,50,50V136ZM37.57,31.213C37.57,13.974,50.653,0,66.791,0S96.012,13.974,96.012,31.213,82.93,62.426,66.791,62.426,37.57,48.451,37.57,31.213Z" transform="translate(-1661 -59.933)" fill="#ea9696"/>
  </g>
</svg>
